# xmcd CD database file
#
# Track frame offsets:
#	150
#	39030
#	74807
#	100694
#	135077
#	181506
#	219013
#	239464
#
# Disc length: 3516 seconds
#
# Revision: 0
# Processed by: cddbd v1.5.2PL0 Copyright (c) Steve Scherf et al.
# Submitted via: CDex 1.51
#
DISCID=5a0dba08
DTITLE=Aaron Irwin - Into the light
DYEAR=2006
DGENRE=Jazz
TTITLE0=All the things you are
TTITLE1=Fumes
TTITLE2=In the 90's
TTITLE3=Into the light
TTITLE4=So in love
TTITLE5=The point
TTITLE6=The anti-hero
TTITLE7=Ugly beauty
EXTD=YEAR: 2006
EXTT0=
EXTT1=
EXTT2=
EXTT3=
EXTT4=
EXTT5=
EXTT6=
EXTT7=
PLAYORDER=
